<svg width="24" height="24" viewBox="0 0 24 24" fill="none" xmlns="http://www.w3.org/2000/svg">
<path fill-rule="evenodd" clip-rule="evenodd" d="M4.53999 2H7.91999C9.32999 2 10.46 3.15 10.46 4.561V7.97C10.46 9.39 9.32999 10.53 7.91999 10.53H4.53999C3.13999 10.53 1.99999 9.39 1.99999 7.97V4.561C1.99999 3.15 3.13999 2 4.53999 2ZM4.53997 13.4697H7.91997C9.32997 13.4697 10.46 14.6107 10.46 16.0307V19.4397C10.46 20.8497 9.32997 21.9997 7.91997 21.9997H4.53997C3.13997 21.9997 1.99997 20.8497 1.99997 19.4397V16.0307C1.99997 14.6107 3.13997 13.4697 4.53997 13.4697ZM19.46 2.00001H16.08C14.67 2.00001 13.54 3.15001 13.54 4.56101V7.97001C13.54 9.39001 14.67 10.53 16.08 10.53H19.46C20.86 10.53 22 9.39001 22 7.97001V4.56101C22 3.15001 20.86 2.00001 19.46 2.00001ZM16.08 13.4697H19.46C20.86 13.4697 22 14.6107 22 16.0307V19.4397C22 20.8497 20.86 21.9997 19.46 21.9997H16.08C14.67 21.9997 13.54 20.8497 13.54 19.4397V16.0307C13.54 14.6107 14.67 13.4697 16.08 13.4697Z" fill="#252836"/>
</svg>
