<svg width="48" height="48" viewBox="0 0 48 48" fill="none" xmlns="http://www.w3.org/2000/svg">
<rect width="48" height="48" rx="16" fill="#32A7E2"/>
<path d="M23.4 14.5197C18.62 14.8297 15 19.0197 15 23.8097V30.4997C15 32.1597 16.34 33.4997 18 33.4997H19C20.1 33.4997 21 32.5997 21 31.4997V27.4997C21 26.3997 20.1 25.4997 19 25.4997H17V23.7897C17 19.9497 19.96 16.6097 23.79 16.4997C27.76 16.3897 31 19.5597 31 23.4997V25.4997H29C27.9 25.4997 27 26.3997 27 27.4997V31.4997C27 32.5997 27.9 33.4997 29 33.4997H30C31.66 33.4997 33 32.1597 33 30.4997V23.4997C33 18.3297 28.64 14.1797 23.4 14.5197Z" fill="white"/>
</svg>
