<svg width="48" height="48" viewBox="0 0 48 48" fill="none" xmlns="http://www.w3.org/2000/svg">
<rect width="48" height="48" rx="16" fill="#FF8700"/>
<path d="M32 30C33.1 30 33.99 29.1 33.99 28L34 18C34 16.9 33.1 16 32 16H16C14.9 16 14 16.9 14 18V28C14 29.1 14.9 30 16 30H13C12.45 30 12 30.45 12 31C12 31.55 12.45 32 13 32H35C35.55 32 36 31.55 36 31C36 30.45 35.55 30 35 30H32ZM17 18H31C31.55 18 32 18.45 32 19V27C32 27.55 31.55 28 31 28H17C16.45 28 16 27.55 16 27V19C16 18.45 16.45 18 17 18Z" fill="white"/>
</svg>
