<svg width="18" height="18" viewBox="0 0 18 18" fill="none" xmlns="http://www.w3.org/2000/svg">
<path id="Star 1" d="M8.54874 0.445683C8.72986 0.0661222 9.27014 0.0661223 9.45126 0.445683L11.7633 5.2909C11.8362 5.44365 11.9814 5.54916 12.1492 5.57128L17.4717 6.27289C17.8887 6.32785 18.0556 6.84169 17.7506 7.13123L13.857 10.8274C13.7342 10.9439 13.6788 11.1146 13.7096 11.281L14.6871 16.5599C14.7636 16.9734 14.3265 17.291 13.9569 17.0903L9.23851 14.5294C9.08975 14.4487 8.91025 14.4487 8.76149 14.5294L4.04308 17.0903C3.67345 17.291 3.23636 16.9734 3.31293 16.5599L4.29041 11.281C4.32123 11.1146 4.26576 10.9439 4.14301 10.8274L0.249387 7.13123C-0.0556285 6.84169 0.111327 6.32785 0.52828 6.27289L5.85081 5.57128C6.01861 5.54916 6.16383 5.44365 6.23672 5.2909L8.54874 0.445683Z" fill="#FF8700"/>
</svg>
