<svg width="22" height="20" viewBox="0 0 22 20" fill="none" xmlns="http://www.w3.org/2000/svg">
<path d="M21 7.50625H16.21L11.82 0.936252C11.42 0.346252 10.55 0.346252 10.16 0.936252L5.77 7.50625H1C0.45 7.50625 0 7.95625 0 8.50625C0 8.59625 0.00999996 8.68625 0.04 8.77625L2.58 18.0463C2.81 18.8863 3.58 19.5063 4.5 19.5063H17.5C18.42 19.5063 19.19 18.8863 19.43 18.0463L21.97 8.77625L22 8.50625C22 7.95625 21.55 7.50625 21 7.50625ZM10.99 3.29625L13.8 7.50625H8.18L10.99 3.29625ZM11 15.5063C9.9 15.5063 9 14.6063 9 13.5063C9 12.4063 9.9 11.5063 11 11.5063C12.1 11.5063 13 12.4063 13 13.5063C13 14.6063 12.1 15.5063 11 15.5063Z" fill="#D5D5E1"/>
</svg>
